<?xml version="1.0" standalone="no"?>
<svg xmlns:xlink="http://www.w3.org/1999/xlink" id="wave" style="transform:rotate(180deg); transition: 0.3s" viewBox="0 0 1440 490" version="1.1" xmlns="http://www.w3.org/2000/svg"><defs><linearGradient id="sw-gradient-0" x1="0" x2="0" y1="1" y2="0"><stop stop-color="rgba(243, 106, 62, 1)" offset="0%"/><stop stop-color="rgba(255, 179, 11, 1)" offset="100%"/></linearGradient></defs><path style="transform:translate(0, 0px); opacity:1" fill="url(#sw-gradient-0)" d="M0,196L120,171.5C240,147,480,98,720,106.2C960,114,1200,180,1440,196C1680,212,1920,180,2160,187.8C2400,196,2640,245,2880,236.8C3120,229,3360,163,3600,147C3840,131,4080,163,4320,220.5C4560,278,4800,359,5040,383.8C5280,408,5520,376,5760,367.5C6000,359,6240,376,6480,326.7C6720,278,6960,163,7200,155.2C7440,147,7680,245,7920,261.3C8160,278,8400,212,8640,155.2C8880,98,9120,49,9360,81.7C9600,114,9840,229,10080,261.3C10320,294,10560,245,10800,212.3C11040,180,11280,163,11520,171.5C11760,180,12000,212,12240,245C12480,278,12720,310,12960,294C13200,278,13440,212,13680,228.7C13920,245,14160,343,14400,359.3C14640,376,14880,310,15120,277.7C15360,245,15600,245,15840,253.2C16080,261,16320,278,16560,245C16800,212,17040,131,17160,89.8L17280,49L17280,490L17160,490C17040,490,16800,490,16560,490C16320,490,16080,490,15840,490C15600,490,15360,490,15120,490C14880,490,14640,490,14400,490C14160,490,13920,490,13680,490C13440,490,13200,490,12960,490C12720,490,12480,490,12240,490C12000,490,11760,490,11520,490C11280,490,11040,490,10800,490C10560,490,10320,490,10080,490C9840,490,9600,490,9360,490C9120,490,8880,490,8640,490C8400,490,8160,490,7920,490C7680,490,7440,490,7200,490C6960,490,6720,490,6480,490C6240,490,6000,490,5760,490C5520,490,5280,490,5040,490C4800,490,4560,490,4320,490C4080,490,3840,490,3600,490C3360,490,3120,490,2880,490C2640,490,2400,490,2160,490C1920,490,1680,490,1440,490C1200,490,960,490,720,490C480,490,240,490,120,490L0,490Z"/></svg>